<svg id="Layer_1" data-name="Layer 1" xmlns="http://www.w3.org/2000/svg" viewBox="0 0 963.79 367.83"><defs><style>.cls-1{fill:#4a494a;}.cls-2{fill:#fff;}.cls-3{fill:#4c484a;}</style></defs><rect class="cls-1" x="125.56" y="221.05" width="838.23" height="17.61"/><polygon class="cls-2" points="526.48 96 701.81 96 701.81 226.74 487.07 226.74 487.07 316.04 455.75 367.83 455.75 192.76 669.47 192.76 669.47 127.83 578.53 127.83 526.48 96"/><rect class="cls-2" x="526.48" y="50.02" width="31.07" height="30.32"/><polygon class="cls-2" points="390.57 92.46 390.57 226.74 144 226.74 144 333.98 194.02 333.98 245.68 366.82 112.17 366.82 112.17 193.77 209.18 193.77 209.18 127.83 116.84 127.83 66.82 96 240.38 96 240.38 193.39 358.23 193.39 358.23 142.61 390.57 92.46"/><rect class="cls-2" x="162.69" y="291.54" width="31.33" height="31.33"/><rect class="cls-2" x="322.86" y="244.04" width="29.81" height="30.32"/><rect class="cls-2" x="358.74" y="244.04" width="31.83" height="30.32"/><path class="cls-1" d="M82.57,368l154-67.2L389.26,368l-59.11,25.27,17.43-18.07c-.87.9,3.41-3-4.93-7.2l-106.73-47L126.08,369.13s-5.38,2.64-.14,7.34l17.77,16.84Z" transform="translate(-82.57 -300.84)"/><line class="cls-3" x1="23.23" y1="82.11" x2="23.23" y2="115.71"/><path class="cls-3" d="M92.67,467.33H119s.76-4.3-2-5.56c0,0,2.52-44.21-12.13-41.43,0,0-10.86-.26-10.61,41.43C94.19,461.77,91.66,463.28,92.67,467.33Z" transform="translate(-82.57 -300.84)"/><path class="cls-2" d="M589.64,551.57h8.62V580.8l29.23-29.23h10.87l-25.48,25.48,25.86,38.6H628.62l-21.74-32.6-8.62,8.62v24h-8.62Z" transform="translate(-82.57 -300.84)"/><path class="cls-2" d="M645.86,551.57h7.49v29.6q6.38-8.24,13.87-8.24,7.88,0,11.62,3.75a12.28,12.28,0,0,1,3.74,9v30h-7.49V587.54a9.17,9.17,0,0,0-2.62-6.74,7.12,7.12,0,0,0-5.25-1.88,10.4,10.4,0,0,0-7.5,3.38q-4.12,4.13-6.37,11.62v21.73h-7.49Z" transform="translate(-82.57 -300.84)"/><path class="cls-2" d="M699.08,578.17a19.48,19.48,0,0,1,27,.38q5.25,5.25,5.25,16.12H701c0,5.24,1.25,9.12,3.75,11.61a11.67,11.67,0,0,0,8.62,3.38q5.23,0,7.49-2.25a8.26,8.26,0,0,0,2.63-6h8.24q-1.5,6.75-4.87,10.12-4.87,4.88-13.49,4.87-9,0-14.62-5.62-6-6-6-16.11T699.08,578.17Zm5.62,4.13a12.18,12.18,0,0,0-3.38,6.37h21.37a9.34,9.34,0,0,0-3-6.75c-1.75-1.74-4.25-2.62-7.5-2.62A10.14,10.14,0,0,0,704.7,582.3Z" transform="translate(-82.57 -300.84)"/><path class="cls-2" d="M769.16,572.93v8.24a18.43,18.43,0,0,0-4.12-.37q-5.62,0-10.5,4.87a22.26,22.26,0,0,0-5.62,8.62v21.36h-7.49v-42h7.49v10.49a29.45,29.45,0,0,1,4.12-5.25Q759,572.93,769.16,572.93Z" transform="translate(-82.57 -300.84)"/><path class="cls-2" d="M780.4,578.17a19.49,19.49,0,0,1,27,.38q5.24,5.25,5.24,16.12H782.28c0,5.24,1.24,9.12,3.74,11.61a11.67,11.67,0,0,0,8.62,3.38q5.25,0,7.5-2.25a8.29,8.29,0,0,0,2.62-6H813q-1.5,6.75-4.87,10.12-4.87,4.88-13.5,4.87-9,0-14.61-5.62-6-6-6-16.11T780.4,578.17ZM786,582.3a12.16,12.16,0,0,0-3.37,6.37H804a9.37,9.37,0,0,0-3-6.75c-1.76-1.74-4.26-2.62-7.5-2.62A10.18,10.18,0,0,0,786,582.3Z" transform="translate(-82.57 -300.84)"/><path class="cls-2" d="M828.37,578.17a19.49,19.49,0,0,1,27,.38q5.24,5.25,5.25,16.12H830.25c0,5.24,1.25,9.12,3.75,11.61a11.66,11.66,0,0,0,8.62,3.38q5.24,0,7.49-2.25a8.26,8.26,0,0,0,2.63-6H861q-1.5,6.75-4.87,10.12-4.87,4.88-13.49,4.87-9,0-14.62-5.62-6-6-6-16.11T828.37,578.17ZM834,582.3a12.18,12.18,0,0,0-3.38,6.37H852a9.38,9.38,0,0,0-3-6.75c-1.75-1.74-4.25-2.62-7.5-2.62A10.14,10.14,0,0,0,834,582.3Z" transform="translate(-82.57 -300.84)"/><path class="cls-2" d="M872.22,573.68h7.5v43.47a11.26,11.26,0,0,1-3.37,8.25c-2.76,2.74-6.75,4.12-12,4.12a24.74,24.74,0,0,1-10.49-2.25v-7.12q6.38,2.63,10.49,2.62a8.63,8.63,0,0,0,6.37-2.24,5.1,5.1,0,0,0,1.5-3.75Zm0-21.74h7.5v9.74h-7.5Z" transform="translate(-82.57 -300.84)"/></svg>