<?xml version="1.0" encoding="UTF-8"?>
<svg xmlns="http://www.w3.org/2000/svg" xmlns:xlink="http://www.w3.org/1999/xlink" viewBox="0 0 768 768">
  <defs>
    <style>
      .cls-1 {
        fill: #2c4852;
      }

      .cls-1, .cls-2, .cls-3, .cls-4, .cls-5, .cls-6, .cls-7, .cls-8, .cls-9, .cls-10, .cls-11, .cls-12 {
        stroke-width: 0px;
      }

      .cls-2 {
        fill: #de444d;
        opacity: .4;
      }

      .cls-13, .cls-3, .cls-6, .cls-8, .cls-9, .cls-12 {
        isolation: isolate;
      }

      .cls-3 {
        fill: #7c7c7e;
        mix-blend-mode: multiply;
        opacity: .22;
      }

      .cls-4 {
        fill: none;
      }

      .cls-14 {
        opacity: .8;
      }

      .cls-5 {
        fill: #d57659;
      }

      .cls-6 {
        fill: #f95800;
      }

      .cls-15 {
        stroke: #a5a5a5;
        stroke-linecap: round;
        stroke-linejoin: round;
        stroke-width: 1.14px;
      }

      .cls-15, .cls-7 {
        fill: #fff;
      }

      .cls-8 {
        fill: #ffc6a9;
      }

      .cls-9 {
        fill: #b23e04;
      }

      .cls-16 {
        clip-path: url(#clippath);
      }

      .cls-10 {
        fill: #f2a16f;
      }

      .cls-11 {
        fill: #0e1839;
      }

      .cls-12 {
        fill: #a5a6a8;
      }
    </style>
    <clipPath id="clippath">
      <rect class="cls-4" width="768" height="768"/>
    </clipPath>
  </defs>
  <g class="cls-13">
    <g id="Layer_2" data-name="Layer 2">
      <g id="Layer_1-2" data-name="Layer 1">
        <g class="cls-16">
          <rect class="cls-12" width="768" height="768"/>
          <polygon class="cls-3" points="93.14 674.78 337.15 885.22 790.55 894.71 790.55 487.97 637.48 221.22 540.81 380.6 371.1 461.77 93.14 674.78"/>
          <g>
            <g>
              <g>
                <path class="cls-8" d="m658.02,531.02c-9.51-21.64-27.78-39.7-49.73-48.59-22.86-9.26-49.11-5.89-73.19-8.99-20.91-2.69-36-12.03-48.49-28.63-11.96-15.9-22.69-33.52-42.25-40.87-15.46-5.81-33.03-4.2-48.39,1.86-28.31,11.16-49.69,34.89-67.7,58.54-16.44,21.59-29.85,45.22-60.26,46-30.43.77-59.4-16.59-90.04-11.99-40.49,6.08-74.22,39.79-81.28,79.92-6.62,37.61,10,74.09,38.55,95.52h490.75c35.98-38.17,54.85-90.89,32.04-142.77Z"/>
                <g>
                  <path class="cls-7" d="m214.39,673.79h1.35c9.38-10.3,16.72-22.81,21.39-36.69,7.56-22.47,7.24-46.04-.9-66.39-4.11-10.28-10.05-19.86-15.79-29.13-5.82-9.4-11.84-19.12-15.93-29.53-1.69-4.31-2.94-8.93-3.69-13.65-.34-.04-.68-.08-1.02-.12.75,4.89,2.04,9.67,3.79,14.13,4.12,10.5,10.16,20.25,16.01,29.69,5.72,9.23,11.63,18.78,15.71,28.98,8.05,20.13,8.36,43.46.88,65.71-4.73,14.05-12.22,26.67-21.8,37Z"/>
                  <path class="cls-7" d="m623.6,630.99c10.11,2.15,19.86,4.09,29.28,5.3.16-.31.32-.62.48-.94-9.5-1.21-19.34-3.15-29.55-5.33-15.55-3.31-32.39-6.9-49.08-6.9-10.34,0-20.62,1.38-30.51,5.04-3.75,1.39-7.36,3.15-10.8,5.25-8.93-3.81-17.91-7.96-26.81-12.53,6.45-4.86,12.98-9.62,19.57-14.23,48.94-34.17,94.1-53.55,137.74-59.05-.09-.32-.18-.64-.27-.96-43.75,5.54-89.01,24.97-138.03,59.19-6.73,4.7-13.39,9.57-19.98,14.54-10-5.17-19.89-10.85-29.45-17.12-17.35-11.37-37.99-27.6-56.01-49.16,69.85-7.84,140.96-17.71,199.03-56.52,2.21-1.47,4.65-3.21,7.18-5.18-.28-.2-.56-.39-.85-.59-2.43,1.88-4.76,3.54-6.88,4.95-58.06,38.8-129.3,48.6-199.24,56.44-12.74-15.41-24.12-33.5-32.03-54.45-12.32-32.63-11.67-64.66,1.78-87.86.58-1.01,1.2-2,1.84-2.98-.56.26-1.12.53-1.68.79-.35.56-.69,1.12-1.02,1.69-13.6,23.46-14.28,55.79-1.85,88.7,7.87,20.84,19.14,38.86,31.78,54.23-4.05.45-8.1.9-12.14,1.35-14.56,1.61-29.62,3.27-44.25,5.15-5.34.69-10.77,1.49-16.17,2.49-11.58-24.44-24.3-48.28-40.74-68.72-.23.23-.47.46-.71.69,16.3,20.29,28.94,43.95,40.45,68.22-23.56,4.49-46.43,12.94-58.65,32.6-11.41,18.36-11.4,43.74.03,75.43.4,1.1.8,2.18,1.21,3.25h1.06c-.45-1.17-.9-2.36-1.34-3.58-11.32-31.39-11.36-56.48-.12-74.57,12.07-19.42,34.82-27.76,58.25-32.2,4.09,8.65,8.04,17.36,11.96,26.03l.43.94c13.63,30.09,27.72,59.12,46.18,83.38h1.23c-18.62-24.31-32.8-53.52-46.51-83.79l-.43-.94c-3.89-8.59-7.81-17.23-11.86-25.81,5.3-.98,10.62-1.76,15.86-2.44,14.61-1.88,29.67-3.54,44.23-5.15,4.25-.47,8.51-.94,12.78-1.42,18.2,21.9,39.1,38.35,56.65,49.85,9.46,6.2,19.23,11.83,29.12,16.95-16.79,12.7-33.12,26.06-49.06,39.1-5.52,4.52-11.1,9.08-16.73,13.64h1.56c5.31-4.31,10.58-8.61,15.79-12.88,16.06-13.13,32.5-26.59,49.41-39.36,8.85,4.55,17.78,8.7,26.66,12.5-12.16,7.73-22.06,19.7-28.05,34.24-.75,1.82-1.4,3.66-2.01,5.5h1.04c.57-1.72,1.19-3.43,1.88-5.13,6.01-14.58,15.99-26.53,28.24-34.14,24.84,10.55,49.24,18.38,70.22,24.59l.79.23c8.84,2.61,17.88,5.29,25.87,9.59.22-.25.45-.51.67-.76-8.13-4.41-17.3-7.12-26.27-9.77l-.79-.23c-20.76-6.14-44.89-13.88-69.46-24.27,3.2-1.91,6.55-3.51,10.02-4.8,25.6-9.49,54-3.44,79.05,1.9Z"/>
                  <path class="cls-7" d="m137.7,567.07c4.36,17.84,2.41,37.11-5.34,52.86-5.08,10.32-12.41,19.66-21.44,27.68.18.28.36.56.55.83,9.18-8.13,16.62-17.61,21.78-28.08,7.85-15.96,9.82-35.47,5.41-53.53-3.45-14.11-10.38-26.07-19.96-34.71-.21.25-.43.5-.64.76,9.42,8.52,16.24,20.29,19.63,34.19Z"/>
                </g>
              </g>
              <path class="cls-8" d="m361.05,341.06c8.6,8.78,12.45,23.58,7.71,37.23-4.59,13.21-14.65,24.16-26.74,31.19-9.73,5.66-22.41,8.78-31.98,2.86-7.15-4.43-10.85-13.12-11.06-21.53-.21-8.41,2.62-16.6,6.12-24.25,4.93-10.78,11.55-21.24,21.43-27.79,13.61-9.04,26.26-6.15,34.52,2.29Z"/>
            </g>
            <g>
              <path class="cls-8" d="m247.09,187.03h-71.19v-31.8h71.19v31.8Zm-69.71-1.48h68.23v-28.84h-68.23v28.84Z"/>
              <path class="cls-8" d="m200.78,217.44h-71.19v-31.8h71.19v31.8Zm-69.71-1.48h68.23v-28.84h-68.23v28.84Z"/>
            </g>
            <g>
              <g>
                <path class="cls-9" d="m652.13,251.33c-4.61-15.33-12.72-29.4-24.32-42.26-11.63-12.87-27.49-23.49-47.58-31.89-20.09-8.4-45.62-12.6-76.58-12.6-24.7,0-49.87,3.33-75.52,9.99-25.67,6.69-47.94,16.2-66.82,28.55l24.58,67.49-13.18,10.67,19.11,5.62c18.86-9.87,36.05-17.04,51.55-21.51,15.48-4.44,31.93-6.66,49.38-6.66s30.61,4.2,39.57,12.6c8.96,8.42,13.43,18.54,13.43,30.41,0,14.34-4.61,27.06-13.78,38.19-9.22,11.13-19.38,22.38-30.52,33.74-7.73,7.89-15.25,16.05-22.5,24.45-7.26,8.42-13.69,17.43-19.24,27.08-5.58,9.63-10.05,20.01-13.43,31.14-3.4,11.13-5.08,23.61-5.08,37.44,0,4.47.09,9.78.35,15.95.04,1.14.1,2.25.17,3.35h-18.06l19.71,13.33h95.85c-.5-2.97-.73-6.42-.73-10.38v-8.91c0-8.4,1.7-16.68,5.08-24.84,3.38-8.16,7.63-15.93,12.72-23.36,5.08-7.41,10.75-14.46,17.07-21.12,6.29-6.69,12.34-12.99,18.15-18.92,7.73-7.89,15.72-16.29,23.94-25.2,8.23-8.91,15.51-18.27,21.79-28.17,6.29-9.9,11.49-20.64,15.6-32.27,4.11-11.61,6.19-24.33,6.19-38.19s-2.32-28.41-6.9-43.74Z"/>
                <path class="cls-6" d="m472.45,254.03c-17.24,0-33.5,2.15-48.8,6.45-15.32,4.32-32.31,11.26-50.95,20.81l-30.16-81.08c18.66-11.96,40.67-21.16,66.04-27.63,25.35-6.45,50.22-9.67,74.63-9.67,30.6,0,55.83,4.06,75.69,12.19,19.86,8.13,35.53,18.41,47.02,30.86,11.47,12.45,19.48,26.07,24.04,40.9,4.53,14.83,6.82,28.94,6.82,42.33s-2.06,25.72-6.12,36.96c-4.06,11.26-9.2,21.65-15.42,31.23-6.21,9.58-13.41,18.64-21.54,27.26s-16.02,16.75-23.66,24.39c-5.75,5.75-11.73,11.84-17.94,18.31-6.24,6.45-11.84,13.27-16.87,20.44-5.02,7.19-9.23,14.72-12.57,22.61-3.34,7.9-5.02,15.91-5.02,24.04v8.62c0,3.83.23,7.17.72,10.04h-94.72c-.98-4.79-1.57-10.16-1.8-16.14-.26-5.98-.35-11.12-.35-15.44,0-13.39,1.66-25.46,5.02-36.23,3.34-10.77,7.76-20.81,13.27-30.13,5.49-9.34,11.84-18.06,19.01-26.21,7.17-8.13,14.6-16.02,22.24-23.66,11-11,21.05-21.89,30.16-32.66,9.06-10.77,13.62-23.08,13.62-36.96,0-11.49-4.41-21.28-13.27-29.43-8.85-8.13-21.89-12.19-39.1-12.19Z"/>
              </g>
              <g>
                <path class="cls-9" d="m545.78,619.46c0,17.28-5.59,30.61-16.78,40.02-11.19,9.43-23.83,14.12-37.95,14.12s-26.78-4.69-37.97-14.12c-11.17-9.41-16.76-22.74-16.76-40.02s5.59-30.6,16.76-40.02c17.22-14.53,42.7-17.77,62.87-7.57,17.89,9.05,29.84,27.43,29.84,47.59Z"/>
                <path class="cls-6" d="m527.03,619.46c0,17.28-5.59,30.61-16.78,40.02-11.19,9.43-23.83,14.12-37.95,14.12s-26.78-4.69-37.97-14.12c-11.17-9.41-16.76-22.74-16.76-40.02s5.59-30.6,16.76-40.02c11.19-9.41,23.83-14.12,37.97-14.12s26.76,4.71,37.95,14.12c11.19,9.43,16.78,22.76,16.78,40.02Z"/>
              </g>
            </g>
            <g>
              <g>
                <circle class="cls-8" cx="233.12" cy="372.58" r="10.32" transform="translate(-176.02 533.07) rotate(-79.38)"/>
                <ellipse class="cls-8" cx="242.45" cy="392.79" rx="5.81" ry="5.85" transform="translate(-188.27 558.75) rotate(-79.39)"/>
                <g>
                  <circle class="cls-8" cx="207.65" cy="320.6" r="40.64" transform="translate(-166.68 396.62) rotate(-68.55)"/>
                  <g>
                    <circle class="cls-7" cx="192.05" cy="320.6" r="5.12"/>
                    <circle class="cls-7" cx="207.65" cy="320.6" r="5.12"/>
                    <circle class="cls-7" cx="223.26" cy="320.6" r="5.12"/>
                  </g>
                </g>
              </g>
              <g>
                <g>
                  <g>
                    <path class="cls-1" d="m178.54,653.26l3.8,14.64c.99,3.82,4.68,6.4,8.77,6.12,12.45-.85,38.32-3.9,53.17-14.84l-4.22-21.1c-20.42-1.15-39.51-.02-56.04,5.55-4.14,1.39-6.53,5.54-5.47,9.63Z"/>
                    <path class="cls-7" d="m202.33,664.91c-.22,0-.41-.14-.48-.36l-5.1-18.26c-.07-.26.08-.53.34-.61.26-.07.54.08.61.34l5.1,18.26c.07.26-.08.53-.34.61-.04.01-.09.02-.13.02Z"/>
                    <path class="cls-7" d="m213.35,662.44c-.22,0-.41-.14-.48-.36l-5.1-18.26c-.07-.26.08-.53.34-.61.26-.07.54.08.61.34l5.1,18.26c.07.26-.08.53-.34.61-.04.01-.09.02-.13.02Z"/>
                  </g>
                  <polygon class="cls-6" points="226.15 574.12 178.7 588.2 213.94 636.49 264.53 640.51 334.31 611 307.79 571.1 226.15 574.12"/>
                  <path class="cls-6" d="m284.65,580.83c104.2-30.85,120.95,61.25-41.63,78.01-5.74-6.46-12.45-17.67-15.12-27.05l85.86-39.68-29.1-11.29Z"/>
                  <path class="cls-10" d="m289.07,646.83c-4.87-1.56-9.54-4.64-9.54-4.64l-16.75,5.25,3.84,18.22,17.4,3.53c5.3-9.69,5.61-17.65,5.06-22.36Z"/>
                  <path class="cls-8" d="m228.27,632.43l-.74-1.28c17.91-10.41,63.79-35.42,102.88-42.79l.27,1.45c-38.86,7.33-84.57,32.25-102.41,42.62Z"/>
                  <path class="cls-6" d="m226.15,574.12c-96.99-18.44-122.11,74.77,40.47,91.53,5.74-6.46,10.24-14.1,12.91-23.47-24.97-16.71-52.9-32.59-83.5-47.72l30.12-20.34Z"/>
                  <path class="cls-8" d="m279.13,642.81c-4.61-2.94-9.42-6.04-14.51-9.33-25.55-16.5-54.51-35.19-79.11-45.86l.59-1.36c24.72,10.71,53.73,29.44,79.33,45.97,5.09,3.29,9.89,6.39,14.5,9.32l-.79,1.25Z"/>
                  <path class="cls-8" d="m154.99,620.34l-1.3-.72c3.64-6.59,9.47-11.04,17.33-13.21l.4,1.43c-7.57,2.1-12.94,6.19-16.43,12.5Z"/>
                  <path class="cls-8" d="m357.42,614.73c-3.49-6.32-8.86-10.41-16.43-12.5l.4-1.43c7.86,2.18,13.69,6.62,17.33,13.21l-1.3.72Z"/>
                  <path class="cls-8" d="m257.54,664.84l-1.08-1.01c7.76-8.31,12.52-17.08,14.57-26.82l1.45.3c-2.1,10.01-6.99,19.01-14.93,27.52Z"/>
                  <g>
                    <path class="cls-1" d="m337.45,641.4c-12.43-7.68-36.52,5.59-42.56,6.26-1.76.2-3.8-.19-5.81-.83.55,4.71.24,12.67-5.06,22.36l2.95.6s20.43,7.49,42.1,3.13c20-4.02,18.14-25.48,8.37-31.52Z"/>
                    <path class="cls-7" d="m320.51,666.52s-.1,0-.15-.02c-.26-.08-.4-.36-.32-.62,1.48-4.67,2.12-13.87-2.16-20.05-.16-.22-.1-.53.12-.69.22-.16.53-.1.69.12,4.48,6.47,3.82,16.05,2.29,20.91-.07.21-.26.35-.47.35Z"/>
                    <path class="cls-7" d="m310.76,668.37s-.1,0-.15-.02c-.26-.08-.4-.36-.32-.62,1.48-4.67,2.12-13.87-2.16-20.05-.16-.22-.1-.53.12-.69.22-.16.53-.1.69.12,4.48,6.47,3.82,16.05,2.29,20.91-.07.21-.26.35-.47.35Z"/>
                  </g>
                </g>
                <g>
                  <g>
                    <path class="cls-10" d="m208.99,453.94s24.43-20.77,23.52-24.72c-.65-2.82-7.57,1.32-7.57,1.32,0,0,9.7-11.51,9.21-12.91-.88-2.5-7.59,2.16-7.59,2.16,0,0,4.54-6.53,2.37-7.59-2.17-1.06-6.9,2.96-6.9,2.96,0,0,2.76-3.63,1.46-4.58-1.3-.95-6.9,2.96-6.9,2.96,0,0,2.01-4.57-2.26-2.84-4.27,1.73-34.2,29.2-34.2,29.2l28.84,14.04Z"/>
                    <g>
                      <path class="cls-5" d="m218.98,429.3c-.12,0-.24-.04-.33-.13-4.19-3.83-6.04-4.76-10.67-6.18-.26-.08-.41-.36-.33-.62.08-.26.36-.41.62-.33,4.79,1.47,6.71,2.44,11.04,6.4.2.18.22.5.03.7-.1.11-.23.16-.36.16Z"/>
                      <path class="cls-5" d="m211.63,440.57s-.05,0-.07,0c-.27-.04-.46-.29-.42-.56.48-3.43,1.56-5.58,3.31-6.56,1.49-.84,3.43-.75,5.77.26.25.11.37.4.26.65-.11.25-.4.37-.65.26-2.04-.88-3.68-.98-4.89-.3-1.44.81-2.38,2.77-2.81,5.84-.03.25-.25.43-.49.43Z"/>
                      <path class="cls-5" d="m210.47,419.8c-.13,0-.26-.05-.36-.15-.19-.2-.18-.51.02-.7l6.13-5.78c.2-.19.51-.18.7.02.19.2.18.51-.02.7l-6.13,5.78c-.1.09-.22.13-.34.13Z"/>
                      <path class="cls-5" d="m216.15,421.78c-.12,0-.25-.05-.34-.14-.2-.19-.2-.5-.01-.7l5.89-6.13c.19-.2.5-.2.7-.01.2.19.2.5.01.7l-5.89,6.13c-.1.1-.23.15-.36.15Z"/>
                      <path class="cls-5" d="m221.95,425.23c-.12,0-.24-.04-.34-.13-.2-.19-.21-.5-.02-.7l4.62-4.96c.19-.2.5-.21.7-.02.2.19.21.5.02.7l-4.62,4.96c-.1.1-.23.16-.36.16Z"/>
                    </g>
                  </g>
                  <g>
                    <path class="cls-1" d="m301.26,592.87l-89.31,3.45-9.87-81.41s29.9-28.36,41.4-38.8l19.42-1c60.25,27.39,50.38,61.59,38.36,117.76Z"/>
                    <path class="cls-1" d="m262.91,475.11s68.93,5.89,90.66,53.12c21.26,46.21-66.12,62.66-66.12,62.66l-24.54-115.78Z"/>
                    <path class="cls-1" d="m184.12,485.23l28.48-34.66-26.64-16.14c-11.11,7.73-32.6,25.22-50.81,45.04-4.02,4.37-7.16,9.48-8.74,15.11-1.35,4.8-1.59,9.54-.84,14.18h0c1.98,12.1,11.5,21.44,24.2,22.93,10.85,1.27,52.3-1.97,85.86-11.84l9.87-38.09c-5.07-2.88-42.76-3.38-61.39,3.48Z"/>
                  </g>
                  <g class="cls-14">
                    <path class="cls-7" d="m320.43,493.85c.15-.03.3-.07.45-.1-.31-.18-.62-.36-.94-.54-5.05,1.16-10.26,2.35-15.4,2.97-3.09.37-13.4,1.05-16.42-5.82-1.5-3.42-.36-7.22,1.33-9.89-.25-.07-.49-.14-.74-.21-1.74,2.83-2.85,6.79-1.27,10.4,3.22,7.34,13.97,6.65,17.18,6.26,5.29-.64,10.63-1.87,15.8-3.06Z"/>
                    <path class="cls-7" d="m352.6,547.12c-3.29-1.27-6.69-2.59-10.27-2.25-6.27.59-11.64,6.8-11.97,13.83-.22,4.79,1.61,9.82,5.1,14.24.21-.13.42-.26.63-.4-3.41-4.29-5.21-9.17-4.99-13.81.31-6.68,5.38-12.57,11.3-13.13,3.4-.32,6.57.91,9.93,2.2,1.2.46,2.42.93,3.66,1.33.06-.24.13-.48.18-.72-1.21-.39-2.4-.85-3.57-1.3Z"/>
                    <path class="cls-7" d="m178.62,523.58c-4.3-3.56-10.99-4.51-18.34-2.61-6.55,1.69-12.17,5.05-16.04,9.49.25.08.5.17.76.25,3.76-4.21,9.17-7.4,15.46-9.03,7.12-1.84,13.57-.94,17.69,2.46,1.96,1.62,3.34,3.72,4.35,5.99.25-.03.51-.06.77-.09-1.05-2.44-2.52-4.72-4.64-6.47Z"/>
                    <path class="cls-7" d="m139.71,474.63c8.06-2,15.93-4.82,23.19-9,2.74-1.58,5.84-3.59,8.02-6.55,2.32-3.15,3.09-6.89,2.06-10.02-.4-1.23-1.12-2.3-2.01-3.17-.19.15-.38.31-.57.47.83.79,1.5,1.79,1.87,2.93.95,2.9.22,6.4-1.95,9.35-2.1,2.85-5.11,4.81-7.79,6.35-6.85,3.94-14.25,6.67-21.86,8.64-.32.33-.64.67-.96,1Z"/>
                  </g>
                  <g>
                    <path class="cls-10" d="m269.21,457.01v1.26s-.21,19.63-.21,19.63l-.03,2.13c-.04,3.33-1.4,6.34-3.6,8.53-2.19,2.18-5.2,3.54-8.55,3.57-6.73.04-12.24-5.37-12.3-12.11l-.24-24.26,24.92,1.25Z"/>
                    <path class="cls-11" d="m269.2,458.27l-.2,19.63c-10.91-4.44-15.4-16.25-15.4-16.25l15.6-3.38Z"/>
                    <path class="cls-10" d="m273.52,424.02c3.91,4.69,15.33,31.28,3.75,40.35-13.02,10.21-32.84-6.57-32.84-6.57l-2.66-30.97,17.2-4.54,14.54,1.72Z"/>
                    <path class="cls-11" d="m233.01,422.31s-38.16,19.9-7.04,77.27c4,7.37,12.85,10.58,20.42,6.99h0c8.12-3.86,11.2-13.78,6.79-21.61-5.09-9.04-10-20.68-7.9-29.35l-12.26-33.3Z"/>
                    <circle class="cls-6" cx="236.61" cy="431.73" r="10.32" transform="translate(-235.98 293.76) rotate(-45)"/>
                    <path class="cls-11" d="m249.31,444.14c-1.12-6.44-1.79-10.86,4.71-14.17,0,0,22.94,4.17,27.32-4.48,4.38-8.65-2.29-22.31-16.26-12.82-35.76-6.99-40.56,26.48-29.71,37.64l10.7-1.64c2.15-.33,3.62-2.37,3.25-4.51Z"/>
                    <g>
                      <circle class="cls-11" cx="267.07" cy="444.15" r="1.52"/>
                      <circle class="cls-11" cx="277.39" cy="439.07" r="1.52"/>
                      <path class="cls-11" d="m276.33,448.85c-.11,0-.21-.04-.3-.12-.17-.16-.18-.44-.02-.61.61-.64,1.28-1.55,1-2.2-.29-.68-1.53-.98-2.09-.98-1.22,0-1.8-2.16-1.91-2.6-.06-.23.09-.46.32-.52.23-.06.46.09.52.32.22.91.73,1.94,1.07,1.94.58,0,2.36.28,2.89,1.5.38.87-.02,1.93-1.17,3.14-.08.09-.2.13-.31.13Z"/>
                      <path class="cls-11" d="m276.41,454.63c-.08,0-.17-.02-.24-.07-2.87-1.94-5.77-.31-5.8-.3-.21.12-.47.05-.59-.16-.12-.21-.05-.47.16-.59.14-.08,3.4-1.91,6.71.33.2.13.25.4.12.6-.08.12-.22.19-.36.19Z"/>
                      <path class="cls-11" d="m266.4,437.55c.87,1.63-.64,1.96-2.42,2.9s-3.58,1.29-4,.51c-.41-.78.69-2.17,2.46-3.11s3.28-1.56,3.96-.29Z"/>
                      <path class="cls-11" d="m272.86,434.6c.38,1.46,1.47.82,3.05.41s2.86-1.21,2.68-1.9c-.18-.7-1.61-.92-3.19-.51-1.58.41-2.83.88-2.53,2.01Z"/>
                    </g>
                    <circle class="cls-2" cx="260.03" cy="451.27" r="4.5" transform="translate(-237.06 295.84) rotate(-42.69)"/>
                    <ellipse class="cls-10" cx="242.95" cy="451.29" rx="6.09" ry="6.92" transform="translate(-262.75 367.92) rotate(-52.34)"/>
                    <path class="cls-11" d="m245.63,453.54c-.24,0-.43-.19-.43-.43,0-1.27-.62-2.45-1.66-3.15-.89-.6-1.95-.74-2.84-.38-.22.09-.47-.02-.56-.24-.09-.22.02-.47.24-.56,1.15-.47,2.52-.3,3.65.46,1.28.86,2.04,2.31,2.04,3.87,0,.24-.19.43-.43.43Z"/>
                  </g>
                  <g>
                    <rect class="cls-11" x="164.85" y="493.16" width="22.95" height=".99" transform="translate(-305.86 288.02) rotate(-47.25)"/>
                    <path class="cls-11" d="m293.51,557.32l-.29-.94c11.34-3.46,22.35-7.59,32.32-20.07l.77.62c-10.15,12.69-21.31,16.89-32.81,20.39Z"/>
                  </g>
                </g>
                <g>
                  <path class="cls-15" d="m300.41,519.11h-96.48c-3.47,0-6.28,3.04-6.28,6.8v68.88c0,3.75,2.81,6.8,6.28,6.8h96.48c3.47,0,6.28-3.04,6.28-6.8v-68.88c0-3.75-2.81-6.8-6.28-6.8Z"/>
                  <path class="cls-1" d="m257.26,555.99c.37,0,.66.32.66.72v7.27c0,.4-.3.72-.66.72h-10.19c-.37,0-.66-.32-.66-.72v-7.27c0-.4.3-.72.66-.72h10.19m0-1.97h-10.19c-1.45,0-2.64,1.21-2.64,2.69v7.27c0,1.48,1.18,2.69,2.64,2.69h10.19c1.45,0,2.64-1.21,2.64-2.69v-7.27c0-1.48-1.18-2.69-2.64-2.69h0Z"/>
                </g>
              </g>
            </g>
            <rect class="cls-11" x="93.14" y="672.8" width="581.72" height="1.97"/>
          </g>
        </g>
      </g>
    </g>
  </g>
</svg>