<svg id="Layer_1" data-name="Layer 1" xmlns="http://www.w3.org/2000/svg" viewBox="0 0 963.79 367.83"><defs><style>.cls-1{fill:#fc8422;}.cls-2,.cls-5{fill:#4a494a;}.cls-3{fill:#4c484a;}.cls-4{fill:none;stroke:#f58326;stroke-miterlimit:10;}.cls-5{font-size:95.94px;font-family:MS-PGothic, MS PGothic;}</style></defs><rect class="cls-1" x="125.56" y="221.05" width="838.23" height="17.61"/><polygon class="cls-2" points="526.48 96 701.81 96 701.81 226.74 487.07 226.74 487.07 316.04 455.75 367.83 455.75 192.76 669.47 192.76 669.47 127.83 578.53 127.83 526.48 96"/><rect class="cls-2" x="526.48" y="50.02" width="31.07" height="30.32"/><polygon class="cls-3" points="390.57 92.46 390.57 226.74 144 226.74 144 333.98 194.02 333.98 245.68 366.82 112.17 366.82 112.17 193.77 209.18 193.77 209.18 127.83 116.84 127.83 66.82 96 240.38 96 240.38 193.39 358.23 193.39 358.23 142.61 390.57 92.46"/><rect class="cls-2" x="162.69" y="291.54" width="31.33" height="31.33"/><rect class="cls-2" x="322.86" y="244.04" width="29.81" height="30.32"/><rect class="cls-2" x="358.74" y="244.04" width="31.83" height="30.32"/><path class="cls-1" d="M82.57,368l154-67.2L389.26,368l-59.11,25.27,17.43-18.07c-.87.9,3.41-3-4.93-7.2l-106.73-47L126.08,369.13s-5.38,2.64-.14,7.34l17.77,16.84Z" transform="translate(-82.57 -300.84)"/><line class="cls-4" x1="23.23" y1="82.11" x2="23.23" y2="115.71"/><path class="cls-1" d="M92.67,467.33H119s.76-4.3-2-5.56c0,0,2.52-44.21-12.13-41.43,0,0-10.86-.26-10.61,41.43C94.19,461.77,91.66,463.28,92.67,467.33Z" transform="translate(-82.57 -300.84)"/><text class="cls-5" transform="translate(500.33 315.94)">Khereej</text></svg>