<?xml version="1.0" encoding="UTF-8"?>
<svg xmlns="http://www.w3.org/2000/svg" xmlns:xlink="http://www.w3.org/1999/xlink" viewBox="0 0 768 768">
  <defs>
    <style>
      .cls-1, .cls-2, .cls-3, .cls-4, .cls-5, .cls-6, .cls-7, .cls-8, .cls-9, .cls-10, .cls-11, .cls-12 {
        stroke: #1d262b;
      }

      .cls-1, .cls-2, .cls-4 {
        stroke-miterlimit: 10;
        stroke-width: .95px;
      }

      .cls-1, .cls-3, .cls-5, .cls-8, .cls-13, .cls-14, .cls-11 {
        fill: #fff;
      }

      .cls-2, .cls-4, .cls-15, .cls-16 {
        mix-blend-mode: multiply;
      }

      .cls-2, .cls-4, .cls-17, .cls-18, .cls-10 {
        fill: #f95800;
      }

      .cls-3, .cls-5, .cls-6, .cls-7, .cls-8, .cls-16, .cls-9, .cls-10, .cls-11, .cls-12 {
        stroke-linecap: round;
        stroke-linejoin: round;
      }

      .cls-3, .cls-6 {
        stroke-width: 1.44px;
      }

      .cls-4, .cls-19 {
        opacity: .5;
      }

      .cls-20, .cls-15, .cls-18, .cls-21 {
        isolation: isolate;
      }

      .cls-5, .cls-12 {
        stroke-width: 1.27px;
      }

      .cls-15 {
        fill: #7c7c7e;
        opacity: .22;
      }

      .cls-15, .cls-17, .cls-22, .cls-18, .cls-13, .cls-14, .cls-21, .cls-23 {
        stroke-width: 0px;
      }

      .cls-6, .cls-12, .cls-23 {
        fill: #1d262b;
      }

      .cls-7 {
        stroke-width: 1.21px;
      }

      .cls-7, .cls-22, .cls-16, .cls-9 {
        fill: none;
      }

      .cls-8 {
        stroke-width: .57px;
      }

      .cls-16 {
        stroke: #f95800;
      }

      .cls-16, .cls-10, .cls-11 {
        stroke-width: 1.14px;
      }

      .cls-24 {
        clip-path: url(#clippath);
      }

      .cls-9 {
        stroke-width: .72px;
      }

      .cls-14 {
        opacity: .7;
      }

      .cls-21 {
        fill: #a5a6a8;
      }
    </style>
    <clipPath id="clippath">
      <rect class="cls-22" width="768" height="768"/>
    </clipPath>
  </defs>
  <g class="cls-20">
    <g id="Layer_2" data-name="Layer 2">
      <g id="Layer_1-2" data-name="Layer 1">
        <g class="cls-24">
          <rect class="cls-21" width="768" height="768"/>
          <polygon class="cls-15" points="165.28 595.58 337.15 885.22 790.55 894.71 790.55 487.97 616.09 345.22 540.81 380.6 371.1 461.77 165.28 595.58"/>
          <g>
            <path class="cls-18" d="m608.61,388.45c1.27-7.3,3.32-14.51,4.77-21.94,2.79-14.22,2.7-29.11.61-43.44-4.09-27.98-15.86-54.56-32.01-76.23-17.83-23.92-44.62-43.27-73.47-35.98-29.99,7.57-55.38,30.7-84.54,41.25-49.39,17.87-99.39-14.69-149.17-13.61-42.97.94-88.06,16.36-116.37,54.51-11.56,15.58-19.61,36.6-16.87,57.17,3.34,25.13,21.78,44.25,35.53,62.84,21.08,28.49,29.06,59.47,11.33,92.79-11.99,22.54-28.12,42.46-26.72,70.46,2.24,44.79,43.58,71.84,77.68,83.91,34.63,12.26,73.98,13.58,108.42-.27,30.6-12.31,51.95-39.28,79.76-56.43,25.03-15.44,53.57-21.36,81.89-17.97,29.47,3.53,60.53,9.72,89.01-2.98,27.25-12.15,40.16-44.72,41.17-75.91.51-15.57-1.73-31.33-6.91-45.8-6.32-17.67-20.31-31.45-24.24-50.2-1.6-7.66-1.12-14.96.14-22.17Z"/>
            <path class="cls-14" d="m608.61,388.45c1.27-7.3,3.32-14.51,4.77-21.94,2.79-14.22,2.7-29.11.61-43.44-4.09-27.98-15.86-54.56-32.01-76.23-17.83-23.92-44.62-43.27-73.47-35.98-29.99,7.57-55.38,30.7-84.54,41.25-49.39,17.87-99.39-14.69-149.17-13.61-42.97.94-88.06,16.36-116.37,54.51-11.56,15.58-19.61,36.6-16.87,57.17,3.34,25.13,21.78,44.25,35.53,62.84,21.08,28.49,29.06,59.47,11.33,92.79-11.99,22.54-28.12,42.46-26.72,70.46,2.24,44.79,43.58,71.84,77.68,83.91,34.63,12.26,73.98,13.58,108.42-.27,30.6-12.31,51.95-39.28,79.76-56.43,25.03-15.44,53.57-21.36,81.89-17.97,29.47,3.53,60.53,9.72,89.01-2.98,27.25-12.15,40.16-44.72,41.17-75.91.51-15.57-1.73-31.33-6.91-45.8-6.32-17.67-20.31-31.45-24.24-50.2-1.6-7.66-1.12-14.96.14-22.17Z"/>
          </g>
          <g>
            <g>
              <path class="cls-17" d="m530.97,169.56c.08.06,2.5-6.39,2.61-6.81,1.23-4.91.71-15.13-4.11-18.13-3.47-2.16-7.79-.47-9.51,3.05-1.76,3.6-.53,8.37,1.18,11.75,2,3.96,9.82,10.13,9.83,10.14Z"/>
              <path class="cls-17" d="m643.24,216.39c-3.96-4.06-14.05-2.37-18.58-.12-.39.2-6.17,3.94-6.09,4.01,0,0,.08.06.09.08-1.59.25-3.3.54-5.16.9-3.43.68-7.29,1.49-11.44,2.64-4.15,1.15-8.62,2.51-13.21,4.37-4.6,1.86-9.34,4.05-13.93,6.94-.05.03-.1.07-.15.11,1.08-1.26,3.99-4.89,4.18-5.2,2.7-4.29,5.39-14.15,1.75-18.5-2.62-3.13-7.25-2.87-9.99-.07-2.79,2.87-3.11,7.79-2.54,11.53.64,4.22,5.69,11.97,6.1,12.58-4.35,2.79-8.58,6.01-12.69,9.5-2.35,1.99-4.66,4.07-6.94,6.19.9-1.12,1.7-2.13,1.79-2.28,2.7-4.29,5.39-14.15,1.75-18.5-2.62-3.13-7.25-2.87-9.99-.07-2.79,2.87-3.11,7.79-2.54,11.53.58,3.79,4.75,10.49,5.88,12.24-.87.82-1.74,1.63-2.61,2.45-4.15,3.95-8.28,7.92-12.44,11.68-1.47,1.33-2.96,2.58-4.45,3.84.8-1,1.46-1.84,1.55-1.98,2.7-4.29,5.39-14.15,1.75-18.5-2.62-3.13-7.25-2.87-9.99-.07-2.79,2.87-3.11,7.79-2.54,11.53.55,3.62,4.35,9.83,5.68,11.93-1.57,1.24-3.13,2.49-4.7,3.62-1.09.75-2.09,1.55-3.23,2.24-1.11.71-2.21,1.41-3.3,2.11-2.15,1.26-4.36,2.58-6.49,3.76-1.47.83-2.89,1.6-4.32,2.37,1.48-1.3,4.31-3.92,4.52-4.16,2.2-2.54,4.77-7.52,5.38-12,.33-.37.62-.77.87-1.2,1.99-3.38,1.02-7.91-2.7-9.62-3.91-1.8-9.91.76-14.08,3.73.17-2.88.09-4.66.09-4.66,0,0-.39.03-1.09.1.27-.63.53-1.26.8-1.9.53-1.2.94-2.53,1.42-3.8,1.05-2.98,1.97-6.04,2.84-9.15,1.96.96,8.96,4.27,12.76,4.41,3.78.14,8.63-.74,11.16-3.84,2.48-3.04,2.2-7.67-1.21-9.92-4.74-3.12-14.23.68-18.18,3.86-.25.2-2.82,2.79-4.21,4.24.5-1.87,1.01-3.74,1.46-5.65,1.29-5.52,2.43-11.14,3.58-16.75.35-1.72.73-3.42,1.09-5.13.69.35,8.94,4.46,13.19,4.62,3.78.14,8.63-.74,11.16-3.84,2.48-3.04,2.2-7.67-1.21-9.91-4.74-3.12-14.23.68-18.18,3.86-.3.24-4,3.98-4.9,4.97.81-3.77,1.65-7.51,2.63-11.17,1.34-5.05,2.94-9.93,4.84-14.55.32.16,8.91,4.49,13.26,4.65,3.78.14,8.63-.74,11.16-3.84,2.48-3.04,2.2-7.67-1.21-9.91-4.74-3.12-14.23.68-18.18,3.86-.31.25-4.29,4.27-4.96,5.05.11-.27.2-.57.32-.84,2.09-4.9,4.73-9.38,7.41-13.46,1.55-2.37,3.17-4.55,4.79-6.64,1.52.97,8.49,5.33,12.4,5.9,3.74.55,8.66.21,11.52-2.59,2.79-2.75,3.03-7.38-.11-9.99-4.36-3.62-14.22-.88-18.49,1.84-.23.15-2.43,1.91-4.01,3.22.75-.93,1.5-1.9,2.23-2.78,2.74-3.3,5.45-6.15,7.87-8.66,1.39-1.41,2.67-2.67,3.89-3.83,1.98.18,9.99.79,13.65-.48,3.58-1.23,7.79-3.8,9.03-7.61,1.21-3.73-.71-7.95-4.7-8.81-5.54-1.2-13.03,5.77-15.57,10.15-.22.38-2.97,6.69-2.87,6.71,0,0,.1,0,.12.01-1.19,1.09-2.45,2.28-3.81,3.6-2.48,2.46-5.26,5.26-8.08,8.52-2.83,3.24-5.81,6.85-8.6,10.93-2.81,4.09-5.56,8.53-7.79,13.47-.03.06-.04.12-.07.17.21-1.65.63-6.28.62-6.64-.11-5.06-3.31-14.78-8.75-16.4-3.92-1.17-7.63,1.6-8.37,5.45-.75,3.93,1.7,8.21,4.24,11.02,2.86,3.16,11.35,6.84,12.03,7.13-2.09,4.73-3.85,9.75-5.35,14.92-.86,2.96-1.64,5.97-2.38,8.99.13-1.43.24-2.71.23-2.89-.11-5.06-3.31-14.78-8.75-16.4-3.92-1.17-7.63,1.6-8.37,5.45-.75,3.93,1.7,8.21,4.24,11.02,2.57,2.85,9.75,6.13,11.66,6.97-.27,1.16-.56,2.32-.82,3.49-1.28,5.59-2.53,11.17-3.93,16.61-.49,1.92-1.05,3.78-1.59,5.66.12-1.27.2-2.34.2-2.51-.11-5.06-3.31-14.78-8.75-16.4-3.92-1.17-7.63,1.6-8.37,5.45-.75,3.93,1.7,8.21,4.24,11.02,2.46,2.72,9.05,5.8,11.32,6.81-.62,1.9-1.24,3.8-1.92,5.62-.5,1.23-.89,2.44-1.46,3.65-.52,1.18-1.04,2.34-1.55,3.49-1.2.2-2.6.47-4.15.83-.41-5.1-2.32-11.33-6.21-13.17-3.69-1.74-7.79.43-9.1,4.12-1.34,3.77.44,8.38,2.52,11.53.28.42.63.85,1.04,1.3-6.06,2.58-12.43,6.41-17.52,12.1-14.04,15.69-12.99,39.53-12.99,39.53,0,0,19.91-1.35,34.04-13.57,4.35-2.04,9.96-4.79,16.39-8.23,2.41-1.28,4.96-2.7,7.56-4.18.68.85,6.28,7.78,10,9.66,3.37,1.71,8.15,2.95,11.75,1.19,3.52-1.72,5.21-6.04,3.06-9.51-2.99-4.82-13.21-5.34-18.12-4.11-.29.07-3.35,1.21-5.27,1.96,1.06-.61,2.1-1.19,3.18-1.84,2.15-1.26,4.26-2.57,6.54-3.98,1.07-.72,2.16-1.44,3.26-2.18,1.1-.7,2.18-1.59,3.28-2.38,2.52-1.9,4.98-3.95,7.41-6.07,1.1,1.88,5.12,8.51,8.21,10.72,3.08,2.2,7.61,4.15,11.43,2.95,3.74-1.17,6.07-5.18,4.46-8.94-2.23-5.22-12.25-7.28-17.29-6.81-.31.03-3.9.77-5.85,1.22,1.45-1.28,2.91-2.56,4.34-3.91,4.12-3.89,8.17-7.95,12.23-11.99,1.24-1.24,2.5-2.46,3.75-3.68.39.67,4.99,8.65,8.45,11.13,3.08,2.2,7.61,4.15,11.43,2.95,3.74-1.17,6.07-5.18,4.46-8.94-2.23-5.22-12.25-7.28-17.29-6.81-.38.04-5.53,1.11-6.83,1.45,2.75-2.69,5.52-5.35,8.36-7.87,3.91-3.47,7.93-6.66,12.06-9.46.18.31,4.95,8.66,8.49,11.2,3.08,2.2,7.61,4.15,11.43,2.95,3.74-1.17,6.07-5.18,4.46-8.94-2.23-5.22-12.25-7.28-17.29-6.81-.4.04-5.94,1.19-6.93,1.48.25-.17.48-.36.73-.53,4.45-2.93,9.12-5.22,13.6-7.14,2.6-1.12,5.15-2.05,7.65-2.9.73,1.65,4.14,9.13,7.08,11.76,2.82,2.52,7.11,4.96,11.04,4.19,3.85-.75,6.6-4.48,5.42-8.39-1.64-5.43-11.37-8.58-16.44-8.67-.28,0-3.08.25-5.12.47,1.13-.36,2.3-.76,3.39-1.09,4.1-1.24,7.94-2.13,11.34-2.88,1.94-.41,3.7-.75,5.35-1.05,1.56,1.24,7.9,6.17,11.65,7.13,3.66.94,8.59,1.12,11.73-1.37,3.07-2.44,3.79-7.02.94-9.94Zm-144.65,76.99c-2.96,1.5-5.74,2.86-8.31,4.08,4.85-6.74,7.42-14.43,8.78-20.99.77.18,1.56.34,2.34.49.23,4.27,3.62,11.85,4.07,12.82-2.37,1.27-4.68,2.49-6.88,3.6Z"/>
              <path class="cls-17" d="m603.29,221.02c3.73-3.42,8.94-12.23,6.57-17.38-1.7-3.71-6.23-4.69-9.62-2.7-3.45,2.03-5.06,6.69-5.5,10.45-.52,4.41,2.6,13.87,2.6,13.88.03.1,5.61-3.95,5.93-4.24Z"/>
              <path class="cls-17" d="m439.39,178.91s-28.89,29.31-29.05,65.62c-.16,36.31,28.48,65.87,28.48,65.87,0,0,28.89-29.31,29.05-65.62.16-36.31-28.48-65.87-28.48-65.87Z"/>
              <path class="cls-17" d="m375.92,261.97s-.18,23.86,14.42,39.03c14.6,15.17,38.45,15.9,38.45,15.9,0,0,.18-23.86-14.42-39.03-14.6-15.17-38.45-15.9-38.45-15.9Z"/>
            </g>
            <g class="cls-19">
              <path class="cls-13" d="m530.97,169.56c.08.06,2.5-6.39,2.61-6.81,1.23-4.91.71-15.13-4.11-18.13-3.47-2.16-7.79-.47-9.51,3.05-1.76,3.6-.53,8.37,1.18,11.75,2,3.96,9.82,10.13,9.83,10.14Z"/>
              <path class="cls-13" d="m643.24,216.39c-3.96-4.06-14.05-2.37-18.58-.12-.39.2-6.17,3.94-6.09,4.01,0,0,.08.06.09.08-1.59.25-3.3.54-5.16.9-3.43.68-7.29,1.49-11.44,2.64-4.15,1.15-8.62,2.51-13.21,4.37-4.6,1.86-9.34,4.05-13.93,6.94-.05.03-.1.07-.15.11,1.08-1.26,3.99-4.89,4.18-5.2,2.7-4.29,5.39-14.15,1.75-18.5-2.62-3.13-7.25-2.87-9.99-.07-2.79,2.87-3.11,7.79-2.54,11.53.64,4.22,5.69,11.97,6.1,12.58-4.35,2.79-8.58,6.01-12.69,9.5-2.35,1.99-4.66,4.07-6.94,6.19.9-1.12,1.7-2.13,1.79-2.28,2.7-4.29,5.39-14.15,1.75-18.5-2.62-3.13-7.25-2.87-9.99-.07-2.79,2.87-3.11,7.79-2.54,11.53.58,3.79,4.75,10.49,5.88,12.24-.87.82-1.74,1.63-2.61,2.45-4.15,3.95-8.28,7.92-12.44,11.68-1.47,1.33-2.96,2.58-4.45,3.84.8-1,1.46-1.84,1.55-1.98,2.7-4.29,5.39-14.15,1.75-18.5-2.62-3.13-7.25-2.87-9.99-.07-2.79,2.87-3.11,7.79-2.54,11.53.55,3.62,4.35,9.83,5.68,11.93-1.57,1.24-3.13,2.49-4.7,3.62-1.09.75-2.09,1.55-3.23,2.24-1.11.71-2.21,1.41-3.3,2.11-2.15,1.26-4.36,2.58-6.49,3.76-1.47.83-2.89,1.6-4.32,2.37,1.48-1.3,4.31-3.92,4.52-4.16,2.2-2.54,4.77-7.52,5.38-12,.33-.37.62-.77.87-1.2,1.99-3.38,1.02-7.91-2.7-9.62-3.91-1.8-9.91.76-14.08,3.73.17-2.88.09-4.66.09-4.66,0,0-.39.03-1.09.1.27-.63.53-1.26.8-1.9.53-1.2.94-2.53,1.42-3.8,1.05-2.98,1.97-6.04,2.84-9.15,1.96.96,8.96,4.27,12.76,4.41,3.78.14,8.63-.74,11.16-3.84,2.48-3.04,2.2-7.67-1.21-9.92-4.74-3.12-14.23.68-18.18,3.86-.25.2-2.82,2.79-4.21,4.24.5-1.87,1.01-3.74,1.46-5.65,1.29-5.52,2.43-11.14,3.58-16.75.35-1.72.73-3.42,1.09-5.13.69.35,8.94,4.46,13.19,4.62,3.78.14,8.63-.74,11.16-3.84,2.48-3.04,2.2-7.67-1.21-9.91-4.74-3.12-14.23.68-18.18,3.86-.3.24-4,3.98-4.9,4.97.81-3.77,1.65-7.51,2.63-11.17,1.34-5.05,2.94-9.93,4.84-14.55.32.16,8.91,4.49,13.26,4.65,3.78.14,8.63-.74,11.16-3.84,2.48-3.04,2.2-7.67-1.21-9.91-4.74-3.12-14.23.68-18.18,3.86-.31.25-4.29,4.27-4.96,5.05.11-.27.2-.57.32-.84,2.09-4.9,4.73-9.38,7.41-13.46,1.55-2.37,3.17-4.55,4.79-6.64,1.52.97,8.49,5.33,12.4,5.9,3.74.55,8.66.21,11.52-2.59,2.79-2.75,3.03-7.38-.11-9.99-4.36-3.62-14.22-.88-18.49,1.84-.23.15-2.43,1.91-4.01,3.22.75-.93,1.5-1.9,2.23-2.78,2.74-3.3,5.45-6.15,7.87-8.66,1.39-1.41,2.67-2.67,3.89-3.83,1.98.18,9.99.79,13.65-.48,3.58-1.23,7.79-3.8,9.03-7.61,1.21-3.73-.71-7.95-4.7-8.81-5.54-1.2-13.03,5.77-15.57,10.15-.22.38-2.97,6.69-2.87,6.71,0,0,.1,0,.12.01-1.19,1.09-2.45,2.28-3.81,3.6-2.48,2.46-5.26,5.26-8.08,8.52-2.83,3.24-5.81,6.85-8.6,10.93-2.81,4.09-5.56,8.53-7.79,13.47-.03.06-.04.12-.07.17.21-1.65.63-6.28.62-6.64-.11-5.06-3.31-14.78-8.75-16.4-3.92-1.17-7.63,1.6-8.37,5.45-.75,3.93,1.7,8.21,4.24,11.02,2.86,3.16,11.35,6.84,12.03,7.13-2.09,4.73-3.85,9.75-5.35,14.92-.86,2.96-1.64,5.97-2.38,8.99.13-1.43.24-2.71.23-2.89-.11-5.06-3.31-14.78-8.75-16.4-3.92-1.17-7.63,1.6-8.37,5.45-.75,3.93,1.7,8.21,4.24,11.02,2.57,2.85,9.75,6.13,11.66,6.97-.27,1.16-.56,2.32-.82,3.49-1.28,5.59-2.53,11.17-3.93,16.61-.49,1.92-1.05,3.78-1.59,5.66.12-1.27.2-2.34.2-2.51-.11-5.06-3.31-14.78-8.75-16.4-3.92-1.17-7.63,1.6-8.37,5.45-.75,3.93,1.7,8.21,4.24,11.02,2.46,2.72,9.05,5.8,11.32,6.81-.62,1.9-1.24,3.8-1.92,5.62-.5,1.23-.89,2.44-1.46,3.65-.52,1.18-1.04,2.34-1.55,3.49-1.2.2-2.6.47-4.15.83-.41-5.1-2.32-11.33-6.21-13.17-3.69-1.74-7.79.43-9.1,4.12-1.34,3.77.44,8.38,2.52,11.53.28.42.63.85,1.04,1.3-6.06,2.58-12.43,6.41-17.52,12.1-14.04,15.69-12.99,39.53-12.99,39.53,0,0,19.91-1.35,34.04-13.57,4.35-2.04,9.96-4.79,16.39-8.23,2.41-1.28,4.96-2.7,7.56-4.18.68.85,6.28,7.78,10,9.66,3.37,1.71,8.15,2.95,11.75,1.19,3.52-1.72,5.21-6.04,3.06-9.51-2.99-4.82-13.21-5.34-18.12-4.11-.29.07-3.35,1.21-5.27,1.96,1.06-.61,2.1-1.19,3.18-1.84,2.15-1.26,4.26-2.57,6.54-3.98,1.07-.72,2.16-1.44,3.26-2.18,1.1-.7,2.18-1.59,3.28-2.38,2.52-1.9,4.98-3.95,7.41-6.07,1.1,1.88,5.12,8.51,8.21,10.72,3.08,2.2,7.61,4.15,11.43,2.95,3.74-1.17,6.07-5.18,4.46-8.94-2.23-5.22-12.25-7.28-17.29-6.81-.31.03-3.9.77-5.85,1.22,1.45-1.28,2.91-2.56,4.34-3.91,4.12-3.89,8.17-7.95,12.23-11.99,1.24-1.24,2.5-2.46,3.75-3.68.39.67,4.99,8.65,8.45,11.13,3.08,2.2,7.61,4.15,11.43,2.95,3.74-1.17,6.07-5.18,4.46-8.94-2.23-5.22-12.25-7.28-17.29-6.81-.38.04-5.53,1.11-6.83,1.45,2.75-2.69,5.52-5.35,8.36-7.87,3.91-3.47,7.93-6.66,12.06-9.46.18.31,4.95,8.66,8.49,11.2,3.08,2.2,7.61,4.15,11.43,2.95,3.74-1.17,6.07-5.18,4.46-8.94-2.23-5.22-12.25-7.28-17.29-6.81-.4.04-5.94,1.19-6.93,1.48.25-.17.48-.36.73-.53,4.45-2.93,9.12-5.22,13.6-7.14,2.6-1.12,5.15-2.05,7.65-2.9.73,1.65,4.14,9.13,7.08,11.76,2.82,2.52,7.11,4.96,11.04,4.19,3.85-.75,6.6-4.48,5.42-8.39-1.64-5.43-11.37-8.58-16.44-8.67-.28,0-3.08.25-5.12.47,1.13-.36,2.3-.76,3.39-1.09,4.1-1.24,7.94-2.13,11.34-2.88,1.94-.41,3.7-.75,5.35-1.05,1.56,1.24,7.9,6.17,11.65,7.13,3.66.94,8.59,1.12,11.73-1.37,3.07-2.44,3.79-7.02.94-9.94Zm-144.65,76.99c-2.96,1.5-5.74,2.86-8.31,4.08,4.85-6.74,7.42-14.43,8.78-20.99.77.18,1.56.34,2.34.49.23,4.27,3.62,11.85,4.07,12.82-2.37,1.27-4.68,2.49-6.88,3.6Z"/>
              <path class="cls-13" d="m603.29,221.02c3.73-3.42,8.94-12.23,6.57-17.38-1.7-3.71-6.23-4.69-9.62-2.7-3.45,2.03-5.06,6.69-5.5,10.45-.52,4.41,2.6,13.87,2.6,13.88.03.1,5.61-3.95,5.93-4.24Z"/>
              <path class="cls-13" d="m439.39,178.91s-28.89,29.31-29.05,65.62c-.16,36.31,28.48,65.87,28.48,65.87,0,0,28.89-29.31,29.05-65.62.16-36.31-28.48-65.87-28.48-65.87Z"/>
              <path class="cls-13" d="m375.92,261.97s-.18,23.86,14.42,39.03c14.6,15.17,38.45,15.9,38.45,15.9,0,0,.18-23.86-14.42-39.03-14.6-15.17-38.45-15.9-38.45-15.9Z"/>
            </g>
            <g>
              <polygon class="cls-13" points="457.58 277.45 456.66 276.26 439.67 289.59 439.79 260.24 463.4 239.35 462.41 238.23 439.8 258.23 439.94 226 455.85 212.23 454.86 211.09 439.95 224 440.14 178.92 438.64 178.91 438.36 245.34 419.65 217.98 418.41 218.83 438.22 247.8 438.34 247.72 438.23 275.32 415.79 255.15 414.79 256.27 438.21 277.33 438.22 277.33 438.08 310.4 439.58 310.41 439.66 291.51 457.58 277.45"/>
              <polygon class="cls-13" points="501.1 261.84 499.98 260.83 474.98 288.79 477.26 270.73 475.77 270.54 473.22 290.73 473.24 290.73 463.18 301.98 461.29 285.29 459.79 285.46 461.84 303.48 449.15 317.66 450.27 318.66 457.48 310.61 470.51 311.39 470.6 309.89 458.75 309.18 469.57 297.09 487.71 297.11 487.71 295.61 470.91 295.59 482.81 282.29 494.86 282.43 494.88 280.93 484.14 280.8 501.1 261.84"/>
              <polygon class="cls-13" points="423.59 295.66 422.1 295.45 420.51 307.21 409.26 295.53 410.63 277.44 409.13 277.32 407.86 294.07 395.49 281.22 396.53 269.21 395.03 269.08 394.1 279.78 376.46 261.45 375.38 262.49 401.38 289.51 383.54 285.89 383.24 287.36 403.19 291.41 403.19 291.39 413.65 302.26 396.88 302.9 396.93 304.4 415.05 303.71 428.25 317.42 429.33 316.38 421.83 308.59 423.59 295.66"/>
            </g>
          </g>
          <g>
            <polyline class="cls-10" points="434.56 654.52 607.34 589.7 608.6 575.87 437.08 640.7 434.56 654.52"/>
            <g>
              <path class="cls-23" d="m405.47,425.34c-2.97,0-5.87-1.04-8.31-3.03-2.9-2.35-4.83-5.77-5.42-9.61-.22-1.44.76-2.79,2.2-3.01,1.43-.23,2.79.76,3.01,2.2.39,2.54,1.65,4.79,3.53,6.32,1.81,1.47,3.98,2.1,6.14,1.76,2.15-.33,4.04-1.58,5.32-3.53.8-1.22,2.44-1.55,3.65-.75,1.22.8,1.55,2.44.75,3.65-2.11,3.2-5.28,5.28-8.92,5.84-.65.1-1.3.15-1.95.15Z"/>
              <path class="cls-23" d="m380.52,433.02c-6.67,0-12.63-5.31-13.76-12.64-.22-1.44.76-2.79,2.2-3.01,1.43-.23,2.79.76,3.01,2.2.79,5.15,5.13,8.78,9.67,8.08,2.15-.33,4.04-1.58,5.32-3.53.8-1.22,2.44-1.55,3.65-.75,1.22.8,1.55,2.44.75,3.65-2.11,3.2-5.28,5.28-8.92,5.84-.64.1-1.29.15-1.92.15Z"/>
              <path class="cls-23" d="m357.72,441.81c-2.97,0-5.87-1.04-8.31-3.03-2.9-2.36-4.83-5.77-5.42-9.61-.22-1.44.77-2.79,2.2-3.01,1.44-.23,2.79.76,3.01,2.2.39,2.55,1.65,4.79,3.53,6.32,1.81,1.47,3.99,2.09,6.14,1.76,2.15-.33,4.04-1.58,5.32-3.53.8-1.21,2.44-1.55,3.65-.75,1.22.8,1.55,2.44.75,3.65-2.11,3.2-5.28,5.28-8.92,5.84-.65.1-1.3.15-1.95.15Z"/>
              <path class="cls-23" d="m332.77,448.94c-6.67,0-12.63-5.31-13.76-12.64-.22-1.44.76-2.79,2.2-3.01,1.43-.23,2.79.76,3.01,2.2.79,5.15,5.13,8.78,9.67,8.08,2.15-.33,4.04-1.58,5.32-3.53.8-1.22,2.44-1.55,3.65-.75,1.22.8,1.55,2.44.75,3.65-2.11,3.2-5.28,5.28-8.92,5.84-.64.1-1.29.15-1.92.15Z"/>
              <path class="cls-23" d="m307.25,459.09c-6.67,0-12.63-5.31-13.76-12.64-.22-1.44.76-2.79,2.2-3.01,1.43-.23,2.79.76,3.01,2.2.79,5.15,5.13,8.78,9.67,8.08,2.15-.33,4.04-1.58,5.32-3.53.8-1.21,2.44-1.55,3.65-.75,1.22.8,1.55,2.44.75,3.65-2.11,3.2-5.28,5.27-8.92,5.84-.65.1-1.29.15-1.92.15Z"/>
              <path class="cls-23" d="m282.52,468.15c-2.97,0-5.86-1.04-8.31-3.03-2.9-2.36-4.83-5.77-5.42-9.61-.22-1.44.77-2.79,2.2-3.01,1.44-.22,2.79.76,3.01,2.2.39,2.54,1.65,4.79,3.53,6.32,1.81,1.47,3.99,2.1,6.14,1.76,2.15-.33,4.04-1.58,5.32-3.53.8-1.21,2.44-1.55,3.65-.75,1.22.8,1.55,2.44.75,3.65-2.11,3.2-5.28,5.28-8.92,5.84-.65.1-1.3.15-1.95.15Z"/>
            </g>
            <g>
              <line class="cls-8" x1="439.3" y1="646.09" x2="582.28" y2="593.41"/>
              <line class="cls-8" x1="435.53" y1="650.48" x2="527.09" y2="616.62"/>
              <polyline class="cls-10" points="262.4 462.07 262.4 478.41 434.56 654.52 437.08 640.7 262.4 462.07"/>
              <line class="cls-8" x1="264.96" y1="474.89" x2="367.18" y2="577.11"/>
              <line class="cls-8" x1="313.25" y1="518.79" x2="419.86" y2="627.9"/>
              <polygon class="cls-11" points="262.4 462.07 437.08 640.7 608.6 575.87 430.83 405.5 262.4 462.07"/>
            </g>
            <g>
              <polygon class="cls-18" points="260.26 459.25 98.48 308.25 264.2 256.58 429.55 402.82 260.26 459.25"/>
              <line class="cls-7" x1="123.24" y1="309.26" x2="170.6" y2="294.51"/>
              <line class="cls-7" x1="130.23" y1="314.7" x2="177.59" y2="299.95"/>
            </g>
            <g>
              <path class="cls-23" d="m291.19,463.35c-.5,0-1-.14-1.45-.44-1.22-.8-1.55-2.44-.75-3.65,1.34-2.03,1.86-4.54,1.46-7.09-.61-3.99-3.39-7.2-6.91-7.99-1.42-.32-2.32-1.73-2-3.15.32-1.42,1.74-2.31,3.15-2,5.62,1.26,10.03,6.21,10.97,12.33.59,3.84-.22,7.68-2.28,10.8-.51.77-1.35,1.18-2.2,1.18Z"/>
              <path class="cls-23" d="m315.89,454.3c-.5,0-1-.14-1.45-.44-1.22-.8-1.55-2.44-.75-3.65,1.34-2.03,1.86-4.54,1.46-7.09-.61-3.99-3.39-7.2-6.92-7.99-1.42-.32-2.31-1.73-2-3.15.32-1.42,1.72-2.32,3.15-2,5.62,1.26,10.03,6.22,10.97,12.33.59,3.84-.22,7.68-2.28,10.8-.51.77-1.35,1.18-2.2,1.18Z"/>
              <path class="cls-23" d="m414.14,420.54c-.5,0-1-.14-1.45-.44-1.22-.8-1.55-2.44-.75-3.65,1.34-2.03,1.86-4.54,1.46-7.09-.61-3.99-3.39-7.2-6.91-7.99-1.42-.32-2.31-1.73-2-3.15.32-1.42,1.73-2.31,3.15-2,5.62,1.26,10.03,6.22,10.97,12.33.59,3.84-.21,7.68-2.28,10.8-.51.77-1.35,1.18-2.2,1.18Z"/>
              <path class="cls-23" d="m389.16,428.22c-.5,0-1-.14-1.45-.44-1.22-.8-1.55-2.44-.75-3.65,1.34-2.03,1.86-4.54,1.46-7.09-.61-3.99-3.39-7.2-6.91-7.99-1.42-.32-2.32-1.73-2-3.15.32-1.42,1.74-2.31,3.15-2,5.62,1.26,10.03,6.21,10.97,12.33.59,3.84-.22,7.68-2.28,10.8-.51.77-1.35,1.18-2.2,1.18Z"/>
              <path class="cls-23" d="m366.38,437.01c-.5,0-1-.14-1.45-.44-1.22-.8-1.55-2.44-.75-3.65,1.34-2.03,1.86-4.54,1.46-7.09-.61-3.99-3.39-7.2-6.91-7.99-1.42-.32-2.32-1.73-2-3.15.32-1.42,1.74-2.31,3.15-2,5.62,1.26,10.03,6.21,10.97,12.33.59,3.84-.22,7.68-2.28,10.8-.51.77-1.35,1.18-2.2,1.18Z"/>
              <path class="cls-23" d="m341.41,444.14c-.5,0-1-.14-1.45-.44-1.22-.8-1.55-2.44-.75-3.65,1.34-2.03,1.86-4.54,1.46-7.09-.61-3.99-3.39-7.2-6.91-7.99-1.42-.32-2.32-1.73-2-3.15.32-1.42,1.74-2.31,3.15-2,5.62,1.26,10.03,6.21,10.97,12.33.59,3.84-.22,7.68-2.28,10.8-.51.77-1.35,1.18-2.2,1.18Z"/>
            </g>
            <g>
              <line class="cls-8" x1="575.58" y1="571.75" x2="582.23" y2="569.3"/>
              <line class="cls-8" x1="444.14" y1="620.3" x2="569.53" y2="573.99"/>
              <line class="cls-8" x1="447.65" y1="599.37" x2="567.32" y2="555.17"/>
              <line class="cls-8" x1="429.23" y1="606.17" x2="439.7" y2="602.31"/>
              <line class="cls-8" x1="414.32" y1="592.05" x2="552.42" y2="541.05"/>
              <line class="cls-8" x1="399.41" y1="577.93" x2="537.51" y2="526.93"/>
              <line class="cls-8" x1="516.8" y1="514.94" x2="522.6" y2="512.8"/>
              <line class="cls-8" x1="384.51" y1="563.8" x2="508.52" y2="518"/>
              <line class="cls-8" x1="369.6" y1="549.68" x2="507.69" y2="498.68"/>
              <line class="cls-8" x1="354.69" y1="535.56" x2="492.78" y2="484.56"/>
              <line class="cls-8" x1="339.78" y1="521.43" x2="477.88" y2="470.43"/>
              <line class="cls-8" x1="324.87" y1="507.31" x2="462.97" y2="456.31"/>
              <line class="cls-8" x1="443.17" y1="443.99" x2="448.06" y2="442.19"/>
              <line class="cls-8" x1="309.97" y1="493.19" x2="438.92" y2="445.56"/>
              <line class="cls-8" x1="336.28" y1="463.84" x2="433.15" y2="428.06"/>
              <line class="cls-8" x1="295.06" y1="479.06" x2="321.73" y2="469.21"/>
            </g>
            <g>
              <path class="cls-16" d="m342.96,515.62c13.98,1.82,12.75-22.1,9.2-30.13-5.2,5.88-7.67,14.07-6.61,21.84.25,1.8.7,3.65,1.83,5.07,1.13,1.43,3.08,2.33,4.81,1.78,1.31-.41,2.25-1.53,3.08-2.63,2.58-3.41,4.28-7.63,6.98-10.75,3.74,2.53,17.06,6.86,15.15-2.45-1.06-5.14,1.5-4.55,4.25-2.04,1.13,1.03,2.92.47,4.33-.15,4.51-1.98,9.03-3.97,13.54-5.95,1.77-.78,3.58-1.56,5.51-1.66,6.5-.33,10.75,5.71,17.13,1.45,2.68-1.79,3.33-6.64,6.78-8.47,2.46-1.31,5.33-1.45,8.09-1.81,9.58-1.28,14.48-6.34,23.33-10.92"/>
              <path class="cls-16" d="m353.82,530.55c5.24.88,9.72-3.89,14.34-5.43,5.92-1.97,8.49-4.39,14.18-6.83,7.5-3.22,16.33-4.7,14.76-16.06-1.07,4.04-1.19,8.53-2.02,12.77,6.08,3.02,7.73-2.16,8.35-6.8,2.48-.03,3.73-.48,5.97-1.21-.02.86.27,1.81.25,2.63,2.93,1.18,4.04.37,4.67-2.21,3.23-.61,4.39-3.64,7.12-4.38.7,7.59,2.63,14.23,2.18,21.99-5.19,1.41-5.99-7.58-4.68-11.3,1.39-3.92,5.25-6.02,6.69-10.11.29.49.06,1.08.23,1.62,6.51-3.89,14.9-2.84,21.35-7.4,2.03-1.44,3.47-4.31,5.63-5.31,4.67-2.16,6.07.38,9.57-4.72"/>
              <path class="cls-16" d="m400.96,575.16c9.41-2.76,13.51-26.07,10.89-34.66-3.17-10.38-7.53,1.01-8.54,6.58-.81,4.46-2.11,16.24,2.06,19.63,9.24,7.5,14.83-7.92,16.02-14.87.41,4.36-2.22,9.73-1.15,14.43,7.48.88,11.19-5.35,10.72-11.78,1.93,1.78,2.28,4.37,1.3,7.06,7.15-.5,5.97-12.57,6.8-17.42-.42,3.41-.1,7.38,2.19,10.12,1.9,2.28,5.55,3.28,7.94,1.52,2.39-1.76,1.92-6.39-.99-7,0,9.77,0,19.54,0,29.31,0,.85-.02,1.75-.49,2.45-.96,1.4-3.31,1.07-4.41-.23-1.1-1.3-1.26-3.13-1.29-4.83-.14-9.59,2.82-22.73,10.25-29.28.52,1,.37,1.82.36,2.95,1.42-.54,2.58-1.74,3.08-3.18.49,2.15,1.76,4.87,3.94,4.49.73-.13,1.35-.62,1.92-1.09,3.58-2.94,7.44-4.9,9.83-9.09.35,1.06.7,2.12,1.05,3.18.57-2.04,2.51-3.38,4.42-4.29,2.9-1.37,6.07-2.17,9.27-2.34,2.76-.14,5.65.15,8.15-1.01,1.12-.52,2.1-1.31,3.13-1.99,2.79-1.84,6.07-2.92,9.41-3.08"/>
            </g>
          </g>
          <g>
            <path class="cls-5" d="m289.47,318.15s21.59-27.19,28.89-36.93c7.3-9.74,12.6-17.21,12.6-17.21,0,0,3.9,3.07,2.76,6.57-1.14,3.49-26.87,38.54-32.62,47.49-5.75,8.95-4.9,20.18-4.49,24.05.41,3.87-10.91-8.84-7.13-23.98Z"/>
            <path class="cls-12" d="m330.96,264.01s13.44-18.69,23.41-34.25c9.97-15.57,24.54-38.91,28.01-42.03,3.47-3.12,4.3,5.01,3.17,10.44-1.13,5.43-13.04,20.62-21.09,33.08-8.05,12.45-13.03,21.4-19.95,29.58s-6.53,8.57-10.78,9.76c-4.25,1.19-3.51-3.08-2.76-6.57Z"/>
            <path class="cls-12" d="m284.84,320.89c1.48-10.08,4.85-28.71,12.56-34.57,7.71-5.86,30.99-1.37,32.93-.99,1.94.37,32.6,7.15,41.93,12.9,9.34,5.75,15.65,22.37,18.04,32.04,2.39,9.67,7.53,25.91,8.32,27.07,0,0,7.77,3.44,12.03,3.02,4.26-.42,9.94-20.21,21.87-31.92,11.93-11.7,18.12-13.29,31.3-12.22,13.18,1.07,63.26,14.69,68.33,19.7,5.07,5,8.24,16.22,7.14,24.36-1.11,8.14.5,17.05.51,18.6.01,1.55,4.69,6.56,3.56,10.83-1.13,4.27-1.85,13.57-5.33,14.76-3.48,1.19-29.06.58-48.06-2.01s-45.43-14.03-62.92-22.06c-17.49-8.02-26.04-11.45-38.82-11.37-12.79.08-37.58.64-60.48-4.64-22.9-5.27-38.46-14.86-42.75-19.09-4.29-4.23-1.65-14.33-.16-24.41Zm137.1,47.52c6.26,9.26,31.51,18.39,45.1,22.17,13.59,3.78,46.18,10.54,54.67,5.84,8.49-4.71,12.96-32.63,12.12-42.32s-4.75-15.08-4.75-15.08c-16.73-10.35-69.11-21.24-79.93-16.91-10.82,4.33-21.19,18.35-24.99,29.61-3.8,11.26-2.21,16.68-2.21,16.68Zm-109.38-15.94c16.73,9.96,43.1,12.89,53.56,13.21s20.5-5.17,20.81-17.19c.31-12.01-6.03-32.12-8.39-37.92-2.36-5.8-10.14-9.23-10.14-9.23-10.5-4.97-53.97-15.92-61.32-14.7-7.35,1.21-13.87,12.49-15.31,28.78-1.44,16.28,4.05,27.1,20.78,37.06Z"/>
            <path class="cls-5" d="m538.64,378.49s4.31,6.56,7.37,1.89c3.07-4.67,42.68-49.11,42.68-49.11,0,0,1.55-.4,1.18,2.7-.37,3.1-41.84,58.79-43.38,61.51-1.53,2.72-8.11,3.54-9.67,2.39-1.56-1.15,1.81-19.39,1.81-19.39Z"/>
            <path class="cls-12" d="m585.99,332.84s1.92-3.11,6.12-12.44,6.79-27.56,7.44-46.55c.65-18.99,1.35-30.23,4.86-26.77,3.51,3.46.5,22.1-.14,36.81-.64,14.64-5.23,29.48-6.34,37.24-.84,5.87-5.32,15.15-8.42,15.17s-2.72-.76-3.51-3.46Z"/>
          </g>
          <g>
            <polygon class="cls-3" points="330.33 575.73 347.36 595.01 322.03 589.3 141.79 479.03 150.1 465.45 330.33 575.73"/>
            <polygon class="cls-2" points="330.33 575.73 347.36 595.01 322.03 589.3 141.79 479.03 150.1 465.45 330.33 575.73"/>
            <rect class="cls-9" x="231.72" y="421.73" width="8.68" height="211.29" transform="translate(-336.99 453.49) rotate(-58.54)"/>
            <polygon class="cls-3" points="330.36 575.76 322.07 589.31 347.36 595.01 330.36 575.76"/>
            <polygon class="cls-2" points="334.71 592.16 347.36 595.01 338.86 585.38 334.71 592.16"/>
            <path class="cls-3" d="m125.77,459.89h0c-2.29,3.75-1.11,8.65,2.63,10.94l13.39,8.19,8.31-13.57-13.39-8.19c-3.75-2.29-8.65-1.11-10.94,2.63Z"/>
            <path class="cls-6" d="m125.77,459.89h0c-2.29,3.75-1.11,8.65,2.63,10.94l6.41,3.92,8.31-13.57-6.41-3.92c-3.75-2.29-8.65-1.11-10.94,2.63Z"/>
          </g>
          <g>
            <path class="cls-1" d="m489.43,395.28l-4.74-3.34c-1.49-1.05-3.37-1.35-5.12-.84-4.95,1.46-14.39,5.17-17.16,8.04-3.53,3.64-4.64,10.19-2.94,13.28,1.69,3.09,8.64,7.01,8.64,7.01l29.07-17.69-7.74-6.47Z"/>
            <path class="cls-4" d="m489.43,395.28l-4.74-3.34c-1.49-1.05-3.37-1.35-5.12-.84-4.95,1.46-14.39,5.17-17.16,8.04-3.53,3.64-4.64,10.19-2.94,13.28,1.69,3.09,8.64,7.01,8.64,7.01l29.07-17.69-7.74-6.47Z"/>
            <path class="cls-1" d="m492.45,393.91l-23.07,10.52s-7.77,4.4-5.32,17.86l134.71,99.19s4.68,3.42,13.14.53c8.46-2.88,17.12-12.86,18.99-21.28,1.87-8.42-4-11.08-5.15-12.02s-128.77-93.79-128.77-93.79c0,0-2.38-1.55-4.54-1.01Z"/>
            <path class="cls-4" d="m492.45,393.91l-23.07,10.52s-7.77,4.4-5.32,17.86l134.71,99.19s4.68,3.42,13.14.53c8.46-2.88,17.12-12.86,18.99-21.28,1.87-8.42-4-11.08-5.15-12.02s-128.77-93.79-128.77-93.79c0,0-2.38-1.55-4.54-1.01Z"/>
            <path class="cls-1" d="m621.85,515c-8.48,7.93-18.76,10.71-22.96,6.21s-.74-14.57,7.74-22.49c8.48-7.93,18.76-10.71,22.96-6.21s.74,14.57-7.74,22.49Z"/>
            <path class="cls-2" d="m621.85,515c-8.48,7.93-18.76,10.71-22.96,6.21s-.74-14.57,7.74-22.49c8.48-7.93,18.76-10.71,22.96-6.21s.74,14.57-7.74,22.49Z"/>
            <path class="cls-12" d="m496.98,394.91s-2.38-1.55-4.54-1.01l-23.07,10.52s-7.77,4.4-5.32,17.86l93.15,68.59c-.66-3.16-.54-7.79,3.02-13.29,3.31-5.12,18.14-13.38,26.15-17.59-37.87-27.58-89.4-65.08-89.4-65.08Z"/>
            <path class="cls-1" d="m603.87,498.47l-49.21-35.69c-3.25-2.3-2.96-7.21.53-9.11l7.62-4.16c1.82-.99,4.05-.85,5.73.37l52.02,37.68"/>
            <path class="cls-4" d="m603.87,498.47l-49.21-35.69c-3.25-2.3-2.96-7.21.53-9.11l7.62-4.16c1.82-.99,4.05-.85,5.73.37l52.02,37.68"/>
          </g>
        </g>
      </g>
    </g>
  </g>
</svg>